<svg version="1.1" id="Layer_1" xmlns="http://www.w3.org/2000/svg" xmlns:xlink="http://www.w3.org/1999/xlink" x="0px" y="0px"
	 width="100%" viewBox="0 0 1024 1024" enable-background="new 0 0 1024 1024" xml:space="preserve">
<path fill="#FFFFE3" opacity="1.FFFFE3" stroke="none" 
	d="
M150.125381,383.222168 
	C153.695740,378.792908 157.015015,374.623871 160.436462,370.540436 
	C162.291641,368.326355 162.759552,366.185822 161.983902,363.214020 
	C152.586578,327.209564 168.574814,288.079468 200.624466,269.407593 
	C205.844498,266.366455 208.329117,262.224091 209.459839,256.978455 
	C214.630722,232.989792 228.044525,214.569000 247.485001,200.222458 
	C258.418854,192.153549 270.755310,187.349808 284.247498,185.723114 
	C289.011169,185.148773 291.981445,182.080292 294.930786,178.921066 
	C310.665497,162.066605 329.535370,150.210480 351.818054,144.335388 
	C374.464539,138.364380 397.108582,137.169617 419.192688,147.172943 
	C421.993134,148.441467 424.913269,149.063492 427.729950,147.026642 
	C442.801849,136.127625 460.101837,135.570755 477.551483,136.914932 
	C492.022461,138.029633 506.168915,141.242950 519.545410,147.103073 
	C531.429077,152.309235 542.126221,159.296631 550.389709,169.497040 
	C552.924133,172.625534 555.880920,174.812195 559.826111,175.536301 
	C583.884216,179.951797 597.868530,195.916306 607.318481,217.017181 
	C611.108215,225.479446 612.204163,234.613541 613.199951,243.691605 
	C613.644470,247.743469 615.383362,250.622696 618.584167,252.747375 
	C636.669983,264.752472 644.195740,282.859100 647.257385,303.256989 
	C650.479858,324.726593 648.227234,345.436432 636.710266,364.460785 
	C636.196167,365.310028 635.829590,366.255005 635.456299,367.180389 
	C635.276611,367.625854 635.241394,368.129639 635.146301,368.580719 
	C636.052612,370.307312 637.832642,370.538147 639.311279,371.187164 
	C652.727173,377.075439 664.860168,384.882538 675.034546,395.484924 
	C677.785645,398.351776 680.638428,399.262939 684.423889,398.303650 
	C709.667175,391.906525 732.887390,396.385864 754.188904,411.311371 
	C759.604797,415.106140 761.952759,414.467987 763.083069,407.911591 
	C767.065857,384.807709 774.118408,362.339966 777.389587,339.127747 
	C778.837463,328.853424 777.190796,318.569122 773.959167,308.617310 
	C772.724915,304.816284 770.782959,303.572845 766.575073,304.445709 
	C756.684692,306.497223 746.761108,308.550476 736.493347,307.631104 
	C725.387024,306.636627 716.198364,301.549530 707.797729,294.743164 
	C705.347839,292.758179 702.840576,291.566284 699.710510,291.351501 
	C680.309387,290.020172 670.451965,281.986542 665.675903,263.491455 
	C664.968018,260.750275 663.372009,258.708435 661.650757,256.705566 
	C652.850037,246.464828 651.452393,234.875565 655.913086,222.564529 
	C663.265137,202.273468 674.801086,184.328613 688.696838,168.015533 
	C698.494446,156.513565 710.567871,152.569687 725.843018,157.879929 
	C764.736816,171.400925 801.962097,188.107986 835.960754,211.589966 
	C841.222473,215.224030 844.957336,219.808914 847.606689,225.571472 
	C855.419067,242.563461 860.501038,260.528229 866.614746,278.126526 
	C877.430481,309.259888 890.630737,339.510468 900.805054,370.887848 
	C909.644409,398.148254 916.832092,425.804260 920.014099,454.304138 
	C922.344788,475.178864 922.097656,496.145264 919.583801,517.068726 
	C918.721191,524.248657 918.723694,531.270813 920.601624,538.682617 
	C923.961548,551.943237 917.719360,563.154602 908.981628,572.666565 
	C899.939941,582.509521 887.942139,586.958496 875.042542,589.272766 
	C864.483032,591.167297 853.867859,591.031250 843.226868,590.285461 
	C840.017273,590.060486 836.958984,590.468872 834.088562,592.164551 
	C813.174683,604.519470 790.329529,610.505310 766.305115,612.424500 
	C732.027710,615.162659 698.130554,613.184265 665.037231,603.201355 
	C646.604004,597.640747 629.467834,589.080383 612.957764,579.241150 
	C601.524231,572.427307 601.332397,572.481750 594.717957,583.868469 
	C581.687866,606.299927 563.133423,621.264099 537.442688,627.010193 
	C530.860901,628.482239 525.434753,632.439270 521.261230,637.939209 
	C508.478394,654.784180 498.797180,673.031982 496.679535,694.434021 
	C495.669769,704.639282 497.754608,714.622864 500.712830,724.402405 
	C504.157654,735.790710 500.292480,742.148560 488.600739,743.840149 
	C482.663513,744.699219 476.641510,744.555298 470.663574,743.819214 
	C470.004578,743.738037 469.360168,743.481995 468.702667,743.453491 
	C459.457123,743.052246 453.941559,738.295593 450.700195,729.622131 
	C443.541626,710.466675 433.134216,693.039795 421.231110,676.450500 
	C418.281342,672.339417 414.567719,670.238708 409.756683,669.310181 
	C397.622833,666.968323 386.289124,662.814453 377.572876,653.538818 
	C375.272064,651.090271 373.407135,652.372681 371.416473,653.553772 
	C362.464172,658.865662 353.086731,663.398132 342.712524,664.657349 
	C306.995453,668.992676 274.717743,662.416016 249.967667,633.750488 
	C244.931656,627.917725 241.350983,621.053406 238.358643,613.994507 
	C236.508087,609.629089 233.578613,606.961975 229.247772,605.452576 
	C193.085114,592.849487 173.544876,566.483215 167.134277,529.625488 
	C166.038376,523.324524 165.291122,516.727783 166.417694,510.235443 
	C167.172485,505.885651 165.718811,502.416412 162.809174,499.321716 
	C147.608276,483.154541 140.162659,463.638184 137.545959,441.867249 
	C135.030350,420.937561 138.757568,401.476501 150.125381,383.222168 
M470.808289,548.431030 
	C476.015808,538.663025 483.619385,531.057312 492.403442,524.521423 
	C503.115356,516.551147 515.316162,511.728180 527.886719,507.643585 
	C539.422241,503.895355 551.291809,501.171143 562.079773,495.217834 
	C589.106995,480.302856 602.121704,449.007294 592.818970,419.726440 
	C587.125854,401.806976 573.773376,393.666565 555.664978,392.386261 
	C551.803650,392.113220 548.871155,390.619293 548.903015,386.628998 
	C548.937073,382.361786 552.154236,380.960358 556.112000,380.676453 
	C563.895325,380.118195 571.728149,379.770416 579.425293,378.586243 
	C596.768433,375.918091 610.653503,367.631683 617.899841,351.112122 
	C626.883179,330.632904 626.627014,309.616241 618.279236,289.015808 
	C614.208008,278.969025 606.380127,271.827576 596.374939,267.397705 
	C589.911011,264.535828 587.892517,261.611023 587.831299,254.367706 
	C587.791870,249.703018 588.098145,244.991806 587.558655,240.382294 
	C584.854431,217.277618 571.615051,200.025604 546.709656,198.193649 
	C542.087891,197.853683 537.825928,196.436417 535.272827,192.119598 
	C528.870422,181.294144 519.068481,174.591660 507.855743,169.749222 
	C490.318359,162.175308 472.171387,158.303207 453.540161,164.828171 
	C425.709930,174.574783 407.794617,194.326920 398.518707,222.089706 
	C397.889374,223.973251 396.656952,226.110275 398.056580,228.361679 
	C400.945618,229.365845 403.300720,227.609741 405.590729,226.593628 
	C420.884583,219.807541 435.514221,222.043350 449.742859,229.604034 
	C459.660980,234.874252 465.694153,243.015930 466.953064,254.359451 
	C467.211639,256.689728 467.231781,259.344482 465.052979,260.678009 
	C462.963104,261.957092 461.764404,259.759460 460.733704,258.352417 
	C449.652588,243.224655 427.505615,239.445206 410.523376,247.006149 
	C391.987305,255.258911 383.372711,270.585938 380.341949,289.889099 
	C377.426849,308.455597 375.719696,327.163391 373.559143,345.817108 
	C373.094299,349.830383 372.648682,354.006958 373.933716,357.906982 
	C375.401489,358.190002 376.178589,357.486267 376.979279,356.931458 
	C391.651215,346.763763 407.698883,342.980347 425.323822,346.473663 
	C427.218018,346.849121 428.908325,346.507782 430.494629,345.305756 
	C442.234833,336.409790 439.296509,311.940186 425.747223,305.937378 
	C418.954285,302.927856 418.188385,298.500244 423.954224,293.741180 
	C430.815094,288.078217 438.244598,285.825195 447.096008,289.682037 
	C459.670837,295.161224 471.951050,293.637146 483.168640,285.943085 
	C495.756714,277.309021 502.916077,265.320465 505.025330,249.992157 
	C507.274353,233.648270 501.664276,221.372009 487.953918,212.519501 
	C481.809906,208.552475 474.850128,206.915283 467.884949,205.234329 
	C464.532349,204.425232 462.788818,202.098465 462.738068,198.738358 
	C462.688263,195.442703 464.778717,193.548904 467.740143,192.704529 
	C469.637085,192.163666 471.634766,191.871262 473.606659,191.719086 
	C478.339813,191.353867 482.837219,192.808517 487.363922,193.835846 
	C516.968872,200.554749 536.405396,223.653229 529.351807,257.077118 
	C528.061035,263.193573 528.217773,263.262695 534.761597,263.672760 
	C555.904175,264.997650 574.417969,279.286987 579.638000,298.959930 
	C582.549133,309.931152 583.078735,321.005920 576.943787,331.370117 
	C575.399597,333.978851 573.403320,335.973816 570.085632,335.180298 
	C566.710266,334.372986 565.921814,331.423035 565.815674,328.584839 
	C565.672058,324.746826 565.140320,320.978088 564.715393,317.179657 
	C562.689026,299.067596 551.006653,286.728455 532.989014,284.551147 
	C525.052368,283.592041 517.966248,284.041107 511.565308,291.434692 
	C501.275635,303.320160 487.650208,310.884399 472.034851,314.439941 
	C468.806000,315.175171 464.776184,314.058746 462.479767,316.371948 
	C459.922455,318.947998 461.790131,323.067810 461.281494,326.469635 
	C461.183197,327.126953 460.996674,327.772156 460.916138,328.430908 
	C459.673126,338.596100 454.570374,347.304596 450.095428,356.179840 
	C448.183838,359.971222 448.379944,362.749817 450.428223,366.330109 
	C453.635284,371.935852 456.787201,377.737488 456.150574,384.624420 
	C456.005219,386.196777 455.626770,387.610779 453.830353,388.053192 
	C452.361664,388.414886 451.472260,387.725159 450.414795,386.675964 
	C446.872864,383.161835 443.244598,379.714142 439.436127,376.493225 
	C427.859863,366.702789 414.710358,363.600494 400.299744,368.677307 
	C385.206238,373.994690 373.959351,383.851410 371.470825,400.225159 
	C367.929749,423.524780 368.534729,447.053589 371.632751,470.387024 
	C374.782318,494.108582 376.523071,517.963623 379.226807,541.724731 
	C381.979919,565.919983 387.922882,589.112915 399.124268,610.826660 
	C403.872650,620.031311 410.367340,627.732178 419.197784,633.289795 
	C432.241302,641.499084 446.057007,645.984131 461.404602,640.785095 
	C477.646240,635.283264 491.379303,625.930481 500.625336,611.367004 
	C504.455566,605.333923 508.375702,602.112793 515.610962,602.466248 
	C518.798279,602.621948 522.157654,601.341125 525.287170,600.269348 
	C553.043274,590.763367 573.530518,551.294617 565.536865,522.935791 
	C564.596863,519.600891 562.823914,518.762085 559.589966,520.230469 
	C549.270203,524.916382 538.503479,528.461914 527.919189,532.477112 
	C518.537842,536.036011 509.705658,540.655029 502.101654,547.408691 
	C494.295319,554.342163 489.225372,562.412842 489.038269,573.302979 
	C488.956757,578.045288 488.760223,582.959534 486.787689,587.525940 
	C481.176636,600.515686 459.970398,609.477356 446.271271,604.695312 
	C444.139191,603.951050 443.580383,602.800598 443.527679,600.661438 
	C443.412292,595.979431 447.097198,594.304016 450.123230,592.680298 
	C458.740540,588.056396 462.624664,580.823547 463.865845,571.432739 
	C464.888641,563.694214 466.342224,555.963501 470.808289,548.431030 
M726.367615,247.764542 
	C724.783997,251.970688 723.140869,256.155579 721.629822,260.387634 
	C718.905212,268.018860 721.128113,274.485962 726.707825,279.904602 
	C732.846680,285.866180 740.057129,286.459473 748.371216,283.583832 
	C746.194275,278.530762 743.229431,274.080627 742.106384,268.854828 
	C740.248230,260.208618 744.597168,253.044891 753.127197,251.037186 
	C755.731750,250.424149 757.180298,250.995239 757.577576,253.973938 
	C758.671082,262.171387 763.829285,267.292297 770.880310,270.886444 
	C779.860352,275.463867 789.317505,278.519104 799.334412,279.691254 
	C802.432983,280.053802 804.849121,281.646271 805.981384,284.196411 
	C807.039978,286.580566 806.087463,289.555267 803.740295,290.800903 
	C797.311951,294.212341 797.901489,299.206940 799.651123,304.911652 
	C805.205688,323.022339 804.942322,341.313446 800.511169,359.549927 
	C796.750610,375.026703 791.105957,389.960815 788.990356,405.940521 
	C784.581482,439.241913 794.707031,466.936188 819.063660,489.737518 
	C820.953308,491.506470 823.673096,492.473022 824.704285,495.243622 
	C822.686035,498.748444 819.383728,499.096252 816.027222,498.727570 
	C811.205383,498.197937 806.593323,496.762451 802.198181,494.664551 
	C787.791138,487.787750 777.336792,476.828949 770.319153,462.722687 
	C764.654114,451.335419 757.651550,441.255615 747.199768,433.753876 
	C734.893250,424.920837 721.456726,418.447632 706.175720,418.645660 
	C685.395081,418.914978 665.705261,424.270721 647.703064,435.061890 
	C646.340637,435.878601 645.034546,437.205139 642.462463,436.055542 
	C644.122131,425.683960 652.036011,419.295715 658.457947,412.227203 
	C658.057800,411.361420 657.974915,410.755341 657.631348,410.500092 
	C644.774048,400.947693 630.854248,394.347992 614.324158,395.322327 
	C610.916931,395.523193 609.584045,397.516296 610.689819,400.822876 
	C611.322144,402.713806 612.137390,404.545074 612.903503,406.389465 
	C617.489319,417.429443 620.089966,428.953705 619.851135,440.876373 
	C619.463867,460.209686 612.448914,477.195984 600.346985,492.175446 
	C599.376770,493.376404 597.704651,494.393982 598.621826,496.909424 
	C607.136963,496.452576 614.700439,493.909821 620.678284,487.330261 
	C623.249268,484.500519 625.880676,481.675751 628.798523,479.221985 
	C634.098938,474.764557 636.976807,475.530609 639.492371,481.977478 
	C643.190613,491.455627 649.341370,498.758118 657.762268,504.477814 
	C672.891968,514.754272 689.881531,518.612244 707.740356,519.645203 
	C721.481689,520.439880 734.908569,518.068604 748.266357,515.199219 
	C750.160645,514.792297 752.054016,513.843018 754.020081,514.936584 
	C753.373108,518.436584 752.922058,519.047607 748.833801,522.231812 
	C735.310547,532.764526 719.536377,537.110474 702.836914,538.202576 
	C680.364136,539.672180 659.115784,534.974792 639.576233,523.576782 
	C635.164307,521.003113 632.041931,520.649841 629.763916,525.933655 
	C629.264404,527.092163 628.210571,528.152100 627.159729,528.905823 
	C624.121826,531.084717 624.546265,533.577637 626.154907,536.318054 
	C629.484863,541.990540 633.862000,546.780151 638.805786,551.044861 
	C663.598511,572.431946 693.403931,580.648010 725.132141,583.631531 
	C741.918274,585.210083 758.695190,584.819092 775.431702,582.696838 
	C787.691101,581.142334 799.669617,578.516663 811.145264,573.815796 
	C814.357971,572.499817 815.531006,570.950012 812.506226,568.093994 
	C810.942261,566.617371 809.559448,564.910767 811.032166,562.400391 
	C812.586426,559.751160 814.839966,559.396423 817.475037,559.993103 
	C825.743652,561.865295 834.040039,563.613892 842.508057,564.249329 
	C853.647400,565.085388 864.816467,565.571777 875.743164,562.590332 
	C882.762878,560.674988 888.516052,556.886353 891.574646,549.919678 
	C893.124023,546.390686 893.527466,542.818481 891.101379,539.477112 
	C888.431213,535.799683 888.430054,531.821228 889.188477,527.553833 
	C894.393494,498.265076 893.930298,468.916199 889.313843,439.643829 
	C884.343262,408.125916 874.759033,377.817749 863.537842,348.062866 
	C851.609619,316.433228 840.176453,284.671722 832.098083,251.803070 
	C828.839478,238.544891 821.208252,228.870071 809.157715,222.473663 
	C779.398743,206.677689 748.050476,194.341522 717.521606,180.223358 
	C712.346313,177.830017 708.047546,179.504471 704.567871,183.526978 
	C693.271301,196.585800 683.915405,210.959259 677.111389,226.810699 
	C673.455139,235.328781 677.135681,242.788696 685.929688,246.400787 
	C692.673645,233.703232 698.869263,220.499817 709.689087,210.137741 
	C713.901245,215.199142 711.153564,219.342575 709.567810,223.356537 
	C706.757202,230.470963 702.106445,236.788528 700.126831,244.263306 
	C697.907837,252.641617 699.803711,260.209900 705.186584,267.753296 
	C707.969177,264.870483 709.311829,261.879303 710.669312,258.900909 
	C713.295593,253.138489 715.788208,247.292679 719.877441,242.356750 
	C722.117065,239.653427 724.614502,237.274185 728.966125,237.357590 
	C729.148865,240.975708 727.866516,243.997757 726.367615,247.764542 
M211.767700,331.263885 
	C214.081360,328.831451 216.596039,326.556610 219.687515,325.272827 
	C222.354950,324.165161 225.560486,323.861389 227.636612,326.150452 
	C229.573532,328.286011 228.212601,330.715881 226.733521,332.953735 
	C219.633972,343.695557 217.060898,355.407684 219.392593,368.161102 
	C221.910660,381.933990 228.462936,392.315460 242.536758,396.785645 
	C245.821655,397.829041 248.500214,397.773529 251.413681,395.678192 
	C257.539581,391.272400 264.199036,387.757751 271.680878,386.311584 
	C281.351990,384.442261 290.562225,385.788788 298.979187,391.184265 
	C300.824890,392.367462 302.717590,393.681091 302.077942,396.329346 
	C301.468719,398.851532 299.260498,399.433716 297.131134,399.924072 
	C296.174957,400.144287 295.146393,400.071228 294.149872,400.092438 
	C273.965057,400.522461 254.579315,416.613922 250.436996,436.284332 
	C248.874283,443.705261 248.630829,451.239532 249.427078,458.667175 
	C251.585220,478.799103 265.630096,501.712860 289.082581,504.857758 
	C294.187683,505.542389 299.302490,506.192963 304.431183,506.655182 
	C312.028778,507.339905 315.815399,511.492462 315.520813,519.083862 
	C315.436920,521.247375 315.251099,523.416321 315.327728,525.575073 
	C315.869293,540.828796 325.192627,556.070801 342.683868,558.979614 
	C353.230225,560.733582 356.086304,559.133240 354.605255,548.627808 
	C351.237213,524.738220 349.737122,500.699951 347.766754,476.697205 
	C347.402344,472.258240 346.301910,471.131775 341.621948,472.171844 
	C326.337769,475.568756 312.252716,471.749603 299.263885,463.513702 
	C293.954407,460.147095 290.792664,455.164856 289.833923,448.856171 
	C289.192322,444.634186 290.960327,441.134216 293.849091,438.586456 
	C296.616425,436.145782 299.078247,439.179901 301.435608,440.396179 
	C305.425201,442.454559 309.195007,444.940887 313.194733,446.977173 
	C322.098999,451.510406 331.360962,451.713898 340.876129,449.065521 
	C344.291077,448.114990 345.853790,446.344330 345.767975,442.695648 
	C345.595642,435.367798 345.613586,428.031219 345.736938,420.701355 
	C346.133728,397.124146 338.009827,377.406982 319.552826,362.295959 
	C307.641052,352.543579 294.132202,348.397644 278.733673,350.093140 
	C271.312653,350.910248 264.516998,353.503571 257.757599,356.301758 
	C253.910339,357.894440 251.486191,356.837280 249.569427,353.288635 
	C247.528778,349.510651 248.401367,346.155151 250.751740,343.078186 
	C252.358887,340.974152 254.440033,339.237915 256.246735,337.279510 
	C261.570557,331.508545 263.253601,325.070282 260.249420,317.510315 
	C257.379639,310.288605 253.426514,303.798920 248.127899,298.153381 
	C238.239410,287.617462 223.220352,285.375031 210.661667,292.541046 
	C201.084030,298.006012 194.209915,306.140594 189.324097,315.788208 
	C182.824936,328.621552 181.201065,342.073364 186.317261,355.875214 
	C188.306778,361.242279 191.582184,365.291443 198.182968,366.487518 
	C199.520767,353.447937 202.264664,341.380066 211.767700,331.263885 
M191.726913,506.182617 
	C191.028717,512.492432 190.482178,518.947449 191.761993,525.096497 
	C197.612335,553.205322 212.183075,574.381104 240.412247,584.146973 
	C244.734161,585.642151 247.949936,588.186646 249.876190,592.419800 
	C251.046005,594.990601 252.540039,597.414612 253.901276,599.897522 
	C270.212708,629.649170 305.594025,647.086975 339.044708,641.568665 
	C349.369263,639.865417 358.966614,636.174011 366.443298,628.327881 
	C369.331055,625.297424 370.192841,621.992004 368.916626,617.822388 
	C365.802582,607.648499 362.662476,597.459167 360.220154,587.113708 
	C359.125488,582.476807 356.927917,581.164124 352.649689,581.336487 
	C344.154755,581.678894 336.205750,579.596985 328.617432,575.757141 
	C316.603790,569.677917 308.642731,559.884277 302.986359,548.032166 
	C301.340973,544.584534 299.607666,544.267395 296.386841,545.907349 
	C285.489166,551.455994 280.755219,565.095703 286.202240,576.802429 
	C291.755676,588.737854 300.697083,597.382202 312.741760,602.788940 
	C314.347656,603.509827 316.380493,603.653442 317.222290,605.733032 
	C316.820099,607.748901 315.299652,608.131714 313.533051,608.300354 
	C289.866028,610.558716 263.127716,590.223938 264.674255,567.130188 
	C264.901733,563.733643 263.610748,562.112732 260.102539,562.374268 
	C258.613098,562.485291 257.103851,562.373901 255.605484,562.315552 
	C241.484833,561.765564 228.089874,552.244568 223.602417,538.973083 
	C221.634598,533.153381 219.945953,526.960266 224.248520,520.326721 
	C230.486038,527.403503 234.920578,535.326782 242.956818,539.569824 
	C251.242935,543.944763 260.209229,544.957520 269.191528,543.333191 
	C278.352661,541.676453 284.566986,535.552612 289.304291,527.812134 
	C286.418060,524.705200 283.085663,523.629700 279.673187,522.855713 
	C257.509125,517.828674 242.373016,503.979706 233.101379,483.962463 
	C229.147247,475.425598 225.104706,469.095245 214.764877,469.705780 
	C213.964645,469.753021 213.130722,469.421509 212.328064,469.207520 
	C198.144150,465.426544 186.849670,449.124878 189.562943,436.362579 
	C190.462967,432.129242 192.967316,431.074921 196.216675,433.886749 
	C198.847809,436.163666 201.192291,438.802307 203.477341,441.442047 
	C207.560181,446.158661 212.636703,449.173737 218.675613,450.456909 
	C224.235245,451.638275 225.437317,450.755035 226.646988,445.327820 
	C228.492905,437.046021 230.204575,428.710754 233.183960,420.753662 
	C234.453613,417.362732 233.799011,415.593323 230.511124,414.161133 
	C218.770706,409.046814 209.393707,401.283203 202.431000,390.296722 
	C196.876572,381.532440 185.714294,380.731049 178.479721,386.771057 
	C174.466309,390.121765 170.969849,393.880432 168.353989,398.383698 
	C159.737717,413.216858 159.204468,429.290924 162.704315,445.373566 
	C165.955429,460.313171 171.565033,474.663330 184.203003,484.413696 
	C191.562607,490.091736 195.163315,496.193359 191.726913,506.182617 
M322.659790,338.723022 
	C333.469360,345.291962 341.786987,354.431580 349.054382,365.437988 
	C351.694824,359.098236 351.867371,353.216644 352.506653,347.528503 
	C355.585236,320.136505 358.090942,292.683777 362.568451,265.456635 
	C368.092499,231.865601 377.266144,199.855194 400.175018,173.359024 
	C404.063568,168.861603 402.987000,166.594025 396.997345,165.463455 
	C377.552094,161.793137 358.860779,164.227905 341.155487,173.033722 
	C325.969574,180.586487 312.692627,190.255341 305.532471,206.529465 
	C303.317535,211.563736 298.736755,213.285065 292.935089,212.015213 
	C288.624481,211.071716 284.282288,210.890762 280.052185,211.739700 
	C258.251251,216.114822 238.510056,236.319809 234.619843,257.981628 
	C233.304214,265.307434 234.682632,268.055817 241.536026,270.574371 
	C266.139801,279.615997 279.559845,297.042206 281.160095,323.292877 
	C281.350464,326.415619 282.281128,327.684265 285.553040,327.754456 
	C298.627991,328.034851 310.804535,331.617554 322.659790,338.723022 
z"/>
<path fill="#FFFFE3" opacity="1.FFFFE3" stroke="none" 
	d="
M546.994141,418.093750 
	C555.050781,429.124329 555.423218,440.824310 551.450500,452.985016 
	C550.792969,454.997803 549.582947,456.911499 548.293823,458.618469 
	C546.102051,461.520721 543.459839,465.600067 539.829407,464.533966 
	C535.748230,463.335480 537.389465,458.614227 537.673096,455.265167 
	C538.776611,442.236877 533.947205,432.233582 522.774536,425.335236 
	C518.260742,422.548309 513.792847,419.687042 509.496399,416.980743 
	C507.420319,417.474976 506.978699,419.062195 506.328186,420.327454 
	C496.461853,439.515533 480.548950,450.299683 459.573029,454.063965 
	C448.566650,456.039185 437.576141,457.571075 426.505798,454.258698 
	C402.426117,447.053741 399.060577,424.111450 409.510895,406.193756 
	C410.167908,405.067200 411.120667,404.059418 412.105591,403.188324 
	C414.545563,401.030426 416.418671,401.076965 417.643188,404.572296 
	C418.504700,407.031433 418.402130,409.499146 418.331268,411.972809 
	C417.814514,430.016510 429.807251,436.555481 444.082397,435.513245 
	C468.462799,433.733276 487.211914,418.105377 494.154633,394.656921 
	C495.122375,391.388489 495.410278,388.190552 494.269165,384.909912 
	C490.370789,373.702209 492.117706,362.539490 495.052948,351.551819 
	C497.386108,342.817963 507.688660,334.612244 515.844971,334.294525 
	C518.391846,334.195343 520.878784,334.578369 522.453979,336.957794 
	C523.995605,339.286346 523.231445,341.558594 521.748901,343.451294 
	C506.693237,362.672272 515.777283,391.500916 533.623291,406.323639 
	C538.099854,410.041840 542.934082,413.355927 546.994141,418.093750 
z"/>
<path fill="#FFFFE3" opacity="1.FFFFE3" stroke="none" 
	d="
M410.643433,554.587280 
	C406.557098,548.693726 407.658020,543.627319 413.564392,540.089172 
	C418.131073,537.353577 422.922821,534.981689 427.012268,531.500671 
	C429.180115,529.655396 431.123596,527.613525 432.643463,525.190613 
	C436.647217,518.807983 435.571594,514.773865 428.747955,511.760956 
	C421.329834,508.485626 414.416748,504.679779 410.091614,497.407593 
	C407.661804,493.322235 406.059692,489.221405 409.643127,485.004364 
	C412.349915,481.818970 416.874023,481.310059 421.976776,484.516541 
	C431.632416,490.583893 442.051514,493.172791 453.309021,492.670532 
	C467.259033,492.048096 479.762604,488.149658 489.186829,476.964478 
	C491.638519,474.054657 494.419250,469.738037 499.043579,472.410980 
	C503.126404,474.770935 501.360138,479.164032 500.654968,482.849030 
	C497.560120,499.022186 486.899658,508.079681 472.006409,513.023499 
	C469.022217,514.014099 465.871094,515.080017 462.794281,515.087891 
	C457.111572,515.102478 455.490448,518.535095 454.424896,523.115479 
	C450.252899,541.049255 438.247467,551.156006 421.118805,555.908203 
	C417.727142,556.849182 414.175720,556.798523 410.643433,554.587280 
z"/>
<path fill="#FFFFE3" opacity="1.FFFFE3" stroke="none" 
	d="
M358.594238,194.198303 
	C363.243103,197.586334 361.139252,200.828140 358.768280,203.766998 
	C354.257935,209.357666 350.085175,215.127121 346.802185,221.552612 
	C340.342987,234.194580 339.726868,247.518158 340.793182,261.399872 
	C341.857880,275.260559 345.613892,288.976654 343.456543,303.053162 
	C342.997498,306.048248 342.298676,308.941132 340.872406,311.608459 
	C338.209564,316.588348 333.929932,318.663879 328.763611,317.115784 
	C324.244385,315.761627 322.819244,311.872498 322.771393,307.705048 
	C322.680634,299.803223 321.640198,292.154297 318.697845,284.767731 
	C312.437500,269.051331 298.410919,259.466583 281.509491,259.415802 
	C278.935638,259.408051 275.837555,260.049042 274.766663,256.639191 
	C273.784515,253.511780 276.097839,251.688461 278.116119,249.949448 
	C286.940430,242.346207 301.136993,241.621536 313.402374,248.064911 
	C315.432495,249.131393 317.223907,250.771027 319.803894,250.842194 
	C321.376648,249.171600 320.692017,247.067871 320.728699,245.184311 
	C320.838806,239.527878 320.807465,233.893646 321.617767,228.250458 
	C323.883392,212.472107 342.129272,195.286850 358.594238,194.198303 
z"/>
</svg>